<svg xmlns="http://www.w3.org/2000/svg" width="19.212" height="18.429" viewBox="0 0 19.212 18.429">
  <g id="Icon_feather-shopping-cart" data-name="Icon feather-shopping-cart" transform="translate(-0.5 -0.5)">
    <path id="Path_175" data-name="Path 175" d="M13.565,30.782A.782.782,0,1,1,12.782,30,.782.782,0,0,1,13.565,30.782Z" transform="translate(-5.024 -13.635)" fill="none" stroke="#edcd83" stroke-linecap="round" stroke-linejoin="round" stroke-width="2"/>
    <path id="Path_176" data-name="Path 176" d="M30.065,30.782A.782.782,0,1,1,29.282,30,.782.782,0,0,1,30.065,30.782Z" transform="translate(-12.918 -13.635)" fill="none" stroke="#edcd83" stroke-linecap="round" stroke-linejoin="round" stroke-width="2"/>
    <path id="Path_177" data-name="Path 177" d="M1.5,1.5H4.629l2.1,10.476a1.565,1.565,0,0,0,1.565,1.26h7.6a1.565,1.565,0,0,0,1.565-1.26l1.252-6.564H5.412" fill="none" stroke="#edcd83" stroke-linecap="round" stroke-linejoin="round" stroke-width="2"/>
  </g>
</svg>
