<svg xmlns="http://www.w3.org/2000/svg" width="31" height="31" viewBox="0 0 31 31">
  <g id="Group_1239" data-name="Group 1239" transform="translate(-80 -92)">
    <g id="Group_401" data-name="Group 401" transform="translate(-231 48)">
      <g id="Ellipse_3" data-name="Ellipse 3" transform="translate(311 44)" fill="#fff" stroke="#fff" stroke-width="1">
        <circle cx="15.5" cy="15.5" r="15.5" stroke="none"/>
        <circle cx="15.5" cy="15.5" r="15" fill="none"/>
      </g>
    </g>
    <path id="fi-rr-laugh" d="M11.459,22.918A11.459,11.459,0,1,1,22.918,11.459,11.459,11.459,0,0,1,11.459,22.918Zm0-21.009a9.549,9.549,0,1,0,9.549,9.549A9.549,9.549,0,0,0,11.459,1.91ZM7.639,13.369A.955.955,0,0,0,6.72,14.6a5.252,5.252,0,0,0,4.746,3.548A5.223,5.223,0,0,0,16.208,14.6a.975.975,0,0,0-.92-1.227ZM5.73,9.549c0,.955.855.955,1.91.955s1.91,0,1.91-.955a1.91,1.91,0,0,0-3.82,0Zm7.639,0c0,.955.855.955,1.91.955s1.91,0,1.91-.955a1.91,1.91,0,1,0-3.82,0Z" transform="translate(84 96.198)" fill="#edcd83"/>
    <path id="fi-rr-laugh-2" data-name="fi-rr-laugh" d="M11.459,22.918A11.459,11.459,0,1,1,22.918,11.459,11.459,11.459,0,0,1,11.459,22.918Zm0-21.009a9.549,9.549,0,1,0,9.549,9.549A9.549,9.549,0,0,0,11.459,1.91ZM7.639,13.369A.955.955,0,0,0,6.72,14.6a5.252,5.252,0,0,0,4.746,3.548A5.223,5.223,0,0,0,16.208,14.6a.975.975,0,0,0-.92-1.227ZM5.73,9.549c0,.955.855.955,1.91.955s1.91,0,1.91-.955a1.91,1.91,0,0,0-3.82,0Zm7.639,0c0,.955.855.955,1.91.955s1.91,0,1.91-.955a1.91,1.91,0,1,0-3.82,0Z" transform="translate(84 96.198)" fill="#edcd83"/>
  </g>
</svg>
